# xmcd
#
# Track frame offsets: 
#        150
#        26736
#        45861
#        66259
#        83576
#        99138
#        119424
#        138173
#        154784
#        167795
#        188418
#        209645
#        233945
#        248345
#        260270
#        280804
#        293254
#        320327
#
# Disc length: 4544 seconds
#
# Revision: 0
# Processed by: cddbd v1.5.2PL0 Copyright (c) Steve Scherf et al.
# Submitted via: ExactAudioCopy v0.99pb4
#
DISCID=e411be12
DTITLE=Rob Tognoni - The Ironyard
DYEAR=2005
DGENRE=Blues
TTITLE0=Words Of A Desperate Man
TTITLE1=No Guarantee
TTITLE2=See Me In The Evening
TTITLE3=All Mine
TTITLE4=Hoot, Shoot, Electrocute
TTITLE5=Can't Take Lovin'
TTITLE6=The Ironyard
TTITLE7=Devil Outta Me
TTITLE8=Lands Of Cirrus
TTITLE9=The Real Thing
TTITLE10=Silver Machine
TTITLE11=Hey Joe (Live)
TTITLE12=Rock'n'Roll Business Man
TTITLE13=I'm Gonna Blow Your Nuts Of With A Gun
TTITLE14=Mountain Man
TTITLE15=Guitar Boogie Refried (Live - GTFM)
TTITLE16=Crossword Blues (Live - GTFM)
TTITLE17=The Good Die Young Instrumental
EXTD=
EXTT0=
EXTT1=
EXTT2=
EXTT3=
EXTT4=
EXTT5=
EXTT6=
EXTT7=
EXTT8=
EXTT9=
EXTT10=
EXTT11=
EXTT12=
EXTT13=
EXTT14=
EXTT15=
EXTT16=
EXTT17=
PLAYORDER=
